<svg width="532" height="504" viewBox="0 0 532 504" fill="none" xmlns="http://www.w3.org/2000/svg">
<path d="M531.72 106.378L531.865 2.14161L43.9546 0.572266C10.8531 2.14162 0.0917969 12.9029 0.0917969 45.2131V205.894C0.0917969 228.366 10.0354 243.176 50.6408 243.176H418.067C426.969 243.176 427.602 262.206 418.067 262.206H0.0917969V370.082H206.983V398.872H0.0917969L1.54247 502.726L531.865 503.372V398.872H330.21V370.082H498.236C518.902 370.082 531.865 359.308 531.865 336.862V172.423C531.865 140.574 521.038 129.457 490.297 129.457H119.824C109.274 129.457 109.182 109.926 119.877 109.926H531.865L531.72 106.378Z" fill="#F5821F"/>
</svg>
